# xmcd CD database file
#
# Track frame offsets:
#	150
#	12044
#	22540
#	33755
#	45227
#	55907
#	66293
#	76719
#	88329
#	99127
#	110996
#	121818
#
# Disc length: 1755 seconds
#
# Revision: 0
# Processed by: cddbd v1.5.1PL0 Copyright (c) Steve Scherf et al.
# Submitted via: CDex 1.51
#
DISCID=7f06d90c
DTITLE=Patsy Cline - Walking After Midnight disc 1
DYEAR=1900
DGENRE=Country
TTITLE0=Walkin After Midnight
TTITLE1=Lovesick Blues
TTITLE2=Hungry for Love
TTITLE3=Crazy Dream
TTITLE4=Honky Tonk Merry Go Round
TTITLE5=I Love You Honey
TTITLE6=Three Cigarettes in an Ashtray
TTITLE7=Let the Teardrops Fall
TTITLE8=I Cried All the Way to the Alter
TTITLE9=If Only I Could Stay Asleep
TTITLE10=I Can See an Angel
TTITLE11=Turn the Cards Slowly
EXTD=
EXTT0=
EXTT1=
EXTT2=
EXTT3=
EXTT4=
EXTT5=
EXTT6=
EXTT7=
EXTT8=
EXTT9=
EXTT10=
EXTT11=
PLAYORDER=
